<?xml version="1.0" encoding="UTF-8"?>
<svg version="1.1" viewBox="0 0 521.76906 484.74739" xmlns="http://www.w3.org/2000/svg">
 <path d="m407.48 483.1c-3.3179-1.1473-25.71-16.301-66-44.664-60.96-42.92-78.76-54.89-98.48-66.25-13.115-7.5497-26.913-14.502-27.985-14.101-0.44706 0.16751-5.5276 6.6046-11.29 14.305-16.399 21.913-33.649 40.043-56.224 59.093-16.98 14.328-24.775 17.661-25.512 10.907-0.48011-4.4003 0.45463-5.877 12.145-19.187 13.717-15.617 28.553-35.03 38.067-49.813 6.32-9.83 16.79-27.74 16.79-28.74 0-1.1111-9.9289-4.6701-17.208-6.1682-4.2393-0.87248-11.214-1.5888-15.5-1.5919-4.2857-3e-3 -9.3871-0.44866-11.337-0.99022-5.7698-1.6029-14.454-12.469-13.777-17.238 0.43163-3.0409 6.4895-4.5801 18.441-4.6856 10.914-0.0963 23.181 1.8705 37.258 5.974 5.7073 1.6637 10.573 2.8285 10.813 2.5885 0.77996-0.77996 11.347-31.796 15.381-45.143 4.078-13.495 4.6352-16.945 2.909-18.012-0.56084-0.34662-8.0523 1.9004-16.648 4.9934-11.655 4.1938-16.328 6.373-18.381 8.5712-3.7002 3.9611-8.5742 4.0383-12.462 0.1976-4.0842-4.0347-9.7832-16.579-9.8954-21.781-0.0801-3.7107 0.66564-5.4006 5.1428-11.655 7.1576-9.9981 18.189-33.098 30.375-63.609 3.9082-9.7847 4.6971-12.694 3.8643-14.25-0.57556-1.0754-1.39-1.9553-1.8098-1.9553-0.41982 0-8.6165 3.1725-18.215 7.0501-9.5983 3.8775-19.545 7.31-22.103 7.6276-8.7949 1.092-21.276-5.2293-20.656-10.462 0.27525-2.3247 1.5064-3.0455 11.807-6.9128 19.183-7.202 46.878-21.306 53.355-27.171 3.0889-2.7974 6.662-5.3486 7.9401-5.6694 6.0467-1.5176 37.683 15.726 41.149 22.429 2.217 4.2871 1.9958 5.3934-2.0453 10.23-1.9808 2.3709-3.2081 4.4419-2.7272 4.6022s10.539-2.1925 22.352-5.2284c11.812-3.0359 28.902-7.3807 37.977-9.6551s17.062-4.574 17.75-5.1102c1.3912-1.0851 1.8631-32.266 0.5-33.036-0.4125-0.23304-8.625 1.7753-18.25 4.463-20.427 5.7039-20.495 5.7002-36-1.9624-7.9941-3.9507-9.5476-5.1048-9.8006-7.2805-0.1653-1.4221 0.32654-3.106 1.093-3.7421 0.76645-0.6361 14.402-4.3117 30.301-8.1681s29.92-7.4502 31.157-7.9864c2.2136-0.95907 2.25-1.2656 2.25-18.924 0-26.979-1.8496-37.146-7.9307-43.594-3.8571-4.0897-5.0693-6.7202-5.0693-11 0-4.6761 1.3496-7.1123 4.98-8.9897 4.1275-2.1344 8.4919-1.8878 18.658 1.0542 12.37 3.5798 19.842 7.5482 27.112 14.399 7.069 6.6622 7.723 9.1951 4.313 16.706-1.4003 3.0842-2.1904 8.5141-3.0353 20.859-0.62817 9.1794-0.9825 16.85-0.78739 17.045 0.19511 0.1951 6.8584-1.6948 14.807-4.1998 13.236-4.1711 14.751-4.8961 17.997-8.6112 3.4396-3.9367 3.6909-4.0403 8.5-3.5058 3.6865 0.40976 9.5287 2.9789 22.813 10.032 9.8216 5.2147 18.743 10.367 19.825 11.449 1.0824 1.0824 2.2085 3.7609 2.5024 5.9521 0.61489 4.5843-1.1326 8.6451-6.3535 14.764-4.2136 4.9386-10.683 24.117-7.4648 22.127 0.47691-0.29474 5.2785-1.2458 10.67-2.1134 7.4315-1.1958 10.506-2.1692 12.71-4.0234 3.7768-3.178 6.6894-3.8438 13.598-3.1085 16.29 1.74 33.15 12.09 33.15 20.37 0 4.0086-2.782 8.0935-7.2556 10.654-3.9465 2.2586-6.1044 2.543-30.744 4.0513-14.575 0.89219-29.261 1.8884-32.634 2.2139l-6.1345 0.5917-5.0486 17.051-5.0486 17.051 2.2881 6.0949c4.5782 12.195 1.263 16.453-14.479 18.596-16.999 2.3139-43.411 8.1313-45.302 9.9777-0.90705 0.88581-3.0535 25.942-2.2879 26.708 0.24583 0.24583 5.5544-0.76842 11.797-2.2539 8.0028-1.9044 12.382-3.5056 14.85-5.4298 6.0488-4.7163 9.9634-6.2672 14.522-5.7535 5.1918 0.58519 17.317 6.3977 23.978 11.495 8.5674 6.5554 8.45 14.785-0.24596 17.227-2.0647 0.58-17.466 2.8704-34.225 5.0898s-30.758 4.4997-31.109 5.0672c-0.80839 1.308-2.2209 27.904-1.5192 28.606 0.91087 0.91087 24.598-3.6858 32.501-6.3072 4.1787-1.386 9.9943-4.1524 12.923-6.1476 8.2439-5.6153 12.056-5.5371 32.674 0.67008 17.958 5.4063 20.642 6.7388 24.25 12.04 5.0999 7.4933 0.88581 15.375-9.8196 18.367-6.2064 1.7343-30.031 3.2974-63.43 4.1616-12.65 0.3273-24.575 0.92547-26.5 1.3293l-3.5 0.73416-2.167 26.851c-2.2767 28.21-3.2099 33.927-6.4383 39.443-1.0868 1.8568-1.8439 3.5081-1.6825 3.6695 0.62272 0.62271 45.036 18.909 59.288 24.41 36.447 14.069 67.665 22.389 110.76 29.517 6.717 1.1111 8.8493 8.4495 3.4766 11.964-3.6443 2.3841-39.598 13.26-64.653 19.557-29.175 7.3329-37.696 8.2846-46.603 5.2049zm-84.62-103.27c-0.6268-1.9386-1.3215-14.234-1.5955-28.238l-0.48531-24.805-2.6374 0.5476c-1.4506 0.30118-7.5874 1.4644-13.637 2.5849-6.05 1.1205-18.376 3.6833-27.391 5.6951l-16.391 3.6578-6.1442-3.1856c-7.1915-3.7286-12.187-7.8559-13.004-10.743-1.3318-4.7108 0.10403-5.1646 40.44-12.78l38.489-7.2672 0.27512-15.029 0.27513-15.029-16.042 3.0215-16.042 3.0215-9.3713-2.2592c-10.21-2.46-13.6-4.8-13.6-9.41 0-1.6731 0.83615-3.191 2.25-4.0847 1.7145-1.0837 48.979-11.624 52.124-11.624 0.34435 0 0.62609-6.7803 0.62609-15.067 0-13.881-0.13783-15.027-1.75-14.549-0.9625 0.28504-5.575 1.4622-10.25 2.616-4.675 1.1537-12.623 3.2511-17.662 4.6608l-9.1624 2.5631-9.8376-3.2262c-5.4107-1.7744-10.85-3.86-12.088-4.6347-2.6958-1.6876-2.9973-5.8358-0.5-6.8804 0.9625-0.40259 15.025-4.8669 31.25-9.9206l29.5-9.1886 0.27411-17.302 0.27411-17.302-3.7741 0.67179c-10.498 1.8687-36.369 7.9859-48.774 11.533-7.7 2.2016-14.85 4.0084-15.889 4.015-1.6445 0.0105-6.5459-2.6321-14.333-7.7277-2.1796-1.4262-2.6408-0.82027-23.891 31.393-27.072 41.038-26.515 40.15-25.541 40.752 1.1658 0.72052 29.879-11.81 32.476-14.172 6.319-5.7496 9.6998-5.5425 23.694 1.4517 12.14 6.07 20.99 13.26 20.99 17.07 0 3.3593-1.8914 7.5-4.9099 10.749-1.6196 1.7433-4.181 6.9796-6.1145 12.5-4.4957 12.836-12.852 32.7-20.499 48.729l-6.3114 13.229 47.668 23.861c26.217 13.124 47.772 23.791 47.9 23.705 0.1281-0.0858-0.2667-1.7012-0.87731-3.5897zm49.47-192.34c5.4041-1.2909 10.232-2.7531 10.728-3.2493 1.0774-1.0774 4.5666-30.06 3.7208-30.906-0.5708-0.57079-22.608 2.3397-23.94 3.1618-0.65424 0.40389-1.1888 5.8222-2.3824 24.147-0.47698 7.3233-0.32647 9.2441 0.7226 9.2215 0.72879-0.0157 5.7466-1.0847 11.151-2.3756zm4.7356-58.108c6.7849-1.3818 12.62-2.972 12.967-3.5336 0.34712-0.56164 1.4582-8.1814 2.4691-16.933 2.0818-18.023 1.8514-19.021-4.3901-19.021-2.0062 0-6.7886 0.86136-10.628 1.9141-3.839 1.0528-8.8924 2.4201-11.23 3.0386l-4.25 1.1244v17.961c0 14.493 0.26308 17.961 1.3625 17.961 0.74937 0 6.9138-1.1306 13.699-2.5125zm-282.69 345.61c-4.7262-2.8819-10.66-10.548-12.679-16.38-3.4501-9.9667-6.7865-25.706-6.9811-32.933-0.12811-4.7578 0.92021-13.154 3.0306-24.274 9.1255-48.082 19.806-198.18 14.712-206.75-0.89123-1.5003-2.631 0.22249-12.118 12-23.948 29.73-68.039 77.254-73.41 79.126-4.4396 1.5477-6.9313-1e-3 -6.9313-4.3088 0-3.5454 0.11945-3.744 15.217-25.303 34.081-48.68 69.035-116.65 94.753-184.26 3.87-10.168 7.03-19.449 7.03-20.624 0-3.2866-2.4187-9.4023-5.8724-14.848-4.9901-7.8685-4.0012-13.972 2.5891-15.979 6.8289-2.0798 29.829 7.515 39.75 16.582 5.4393 4.9712 11.211 13.24 15.475 22.171 3.0861 6.4633 2.3564 10.746-2.7452 16.113-2.1293 2.2399-6.4988 8.7976-9.71 14.573-3.2112 5.775-13.522 23.325-22.913 39-9.3908 15.675-17.223 28.835-17.405 29.244-0.18224 0.4092 2.2928 6.0313 5.5 12.494l5.8313 11.75-0.17299 25.006c-0.18239 26.364-2.0558 76.839-5.3822 145.01-1.1004 22.55-2.425 52.25-2.9435 66-1.317 34.92-4.3706 50.267-11.134 55.958-3.6891 3.1042-9.0239 3.353-13.491 0.62922z"/>
</svg>
